<svg width="22" height="24" viewBox="0 0 22 24" fill="none" xmlns="http://www.w3.org/2000/svg">
<path d="M0.79453 21.6693C0.611907 22.335 1.00357 23.0228 1.66933 23.2054C2.3351 23.388 3.02285 22.9964 3.20547 22.3306L0.79453 21.6693ZM2.79 19.1199L1.58466 18.7888L1.58453 18.7893L2.79 19.1199ZM19.21 19.1199L20.4155 18.7893L20.4153 18.7888L19.21 19.1199ZM18.7945 22.3306C18.9772 22.9964 19.6649 23.388 20.3307 23.2054C20.9964 23.0228 21.3881 22.335 21.2055 21.6693L18.7945 22.3306ZM3.20547 22.3306L3.99547 19.4506L1.58453 18.7893L0.79453 21.6693L3.20547 22.3306ZM3.99534 19.4511C5.1695 15.1773 8.17642 13.2449 11 13.2449C13.8236 13.2449 16.8305 15.1773 18.0047 19.4511L20.4153 18.7888C18.9795 13.5626 15.0814 10.7449 11 10.7449C6.91858 10.7449 3.0205 13.5626 1.58466 18.7888L3.99534 19.4511ZM18.0045 19.4506L18.7945 22.3306L21.2055 21.6693L20.4155 18.7893L18.0045 19.4506ZM14.75 6.97998C14.75 9.05105 13.0711 10.73 11 10.73V13.23C14.4518 13.23 17.25 10.4318 17.25 6.97998H14.75ZM11 10.73C8.92893 10.73 7.25 9.05105 7.25 6.97998H4.75C4.75 10.4318 7.54822 13.23 11 13.23V10.73ZM7.25 6.97998C7.25 4.90891 8.92893 3.22998 11 3.22998V0.72998C7.54822 0.72998 4.75 3.5282 4.75 6.97998H7.25ZM11 3.22998C13.0711 3.22998 14.75 4.90891 14.75 6.97998H17.25C17.25 3.5282 14.4518 0.72998 11 0.72998V3.22998Z" fill="#151515"/>
</svg>
